<?xml version="1.0" standalone="no"?>
<!DOCTYPE svg PUBLIC "-//W3C//DTD SVG 20010904//EN"
 "http://www.w3.org/TR/2001/REC-SVG-20010904/DTD/svg10.dtd">
<svg version="1.0" xmlns="http://www.w3.org/2000/svg"
 width="260.000000pt" height="260.000000pt" viewBox="0 0 260.000000 260.000000"
 preserveAspectRatio="xMidYMid meet">
<metadata>
Created by potrace 1.11, written by Peter Selinger 2001-2013
</metadata>
<g transform="translate(0.000000,260.000000) scale(0.100000,-0.100000)"
fill="#000000" stroke="none">
<path d="M990 2278 c-200 -170 -198 -168 -172 -174 13 -4 22 -14 22 -25 0 -23
-57 -89 -77 -89 -13 0 -13 -3 -3 -15 11 -13 9 -20 -10 -40 -24 -26 -54 -33
-65 -15 -3 6 -14 10 -23 10 -14 0 -13 -4 6 -18 23 -18 21 -32 -6 -32 -8 0 -30
12 -49 26 -19 14 -41 23 -48 20 -16 -6 -20 -43 -7 -63 4 -6 79 -55 167 -108
88 -52 176 -112 195 -133 19 -20 44 -42 55 -48 11 -6 45 -23 75 -39 56 -29
310 -205 435 -301 39 -30 76 -53 84 -52 15 3 96 128 83 128 -4 0 -15 -12 -24
-27 -9 -16 -28 -41 -42 -58 l-27 -30 -32 36 c-18 20 -44 57 -58 82 -15 24 -52
63 -83 86 -41 31 -55 47 -53 63 3 27 -83 87 -218 153 -93 45 -131 55 -153 41
-8 -5 -34 12 -75 51 -35 32 -91 74 -125 93 -35 20 -61 41 -59 49 1 7 28 32 59
55 32 22 100 72 152 109 108 78 299 269 294 295 -3 15 -83 50 -113 50 -5 0
-53 -36 -105 -80z m10 -162 c0 -8 -13 -24 -29 -35 -55 -39 -71 -20 -20 23 34
29 49 33 49 12z"/>
<path d="M1497 2118 c-16 -12 -10 -15 52 -31 67 -18 91 -17 91 3 0 27 -115 49
-143 28z"/>
<path d="M743 2065 c-3 -9 -3 -18 0 -22 10 -10 37 6 37 22 0 20 -29 20 -37 0z"/>
<path d="M1709 2043 c-13 -16 -12 -17 4 -4 9 7 17 15 17 17 0 8 -8 3 -21 -13z"/>
<path d="M657 1993 c-22 -6 -12 -23 14 -23 10 0 19 7 19 15 0 15 -2 16 -33 8z"/>
<path d="M611 1960 c-16 -9 -6 -30 15 -30 15 0 20 25 6 34 -4 2 -14 1 -21 -4z"/>
<path d="M1762 1470 c-7 -11 -9 -20 -4 -20 4 0 13 9 20 20 7 11 9 20 4 20 -4
0 -13 -9 -20 -20z"/>
<path d="M1671 1337 c-13 -21 -12 -21 5 -5 10 10 16 20 13 22 -3 3 -11 -5 -18
-17z"/>
<path d="M192 1305 c-99 -50 -151 -151 -138 -269 16 -152 158 -253 307 -217
l54 13 90 -50 c139 -77 202 -95 310 -90 64 4 103 11 135 27 25 11 34 19 20 16
-79 -16 -169 -17 -230 -1 -62 15 -264 108 -275 126 -3 4 9 23 26 41 54 58 64
86 64 184 0 88 -1 92 -35 140 -48 67 -112 99 -205 103 -60 3 -78 -1 -123 -23z
m198 -26 c40 -25 52 -39 82 -94 27 -50 30 -180 5 -235 -54 -120 -197 -143
-293 -46 -48 47 -68 102 -69 186 -1 129 71 210 184 210 39 0 66 -6 91 -21z"/>
<path d="M2410 1316 c0 -9 5 -16 11 -16 6 0 8 -7 5 -17 -11 -29 -88 -153 -95
-153 -3 0 -26 36 -49 80 -36 66 -41 84 -32 95 11 13 2 15 -60 15 -74 0 -79 -4
-39 -24 22 -11 139 -197 139 -219 0 -24 -141 -229 -160 -234 -39 -10 -19 -21
35 -20 49 1 54 3 49 20 -4 12 11 48 41 100 26 45 51 86 55 90 8 9 99 -141 110
-182 6 -24 12 -26 63 -29 35 -2 57 1 57 8 0 5 -6 10 -13 10 -25 0 -55 43 -153
216 l-23 41 55 84 c31 46 70 96 87 112 l31 27 -41 0 c-23 0 -48 3 -57 6 -11 4
-16 1 -16 -10z"/>
<path d="M648 1148 c8 -8 12 -49 12 -119 0 -126 14 -170 63 -196 42 -22 117
-22 151 0 51 34 61 62 65 187 1 63 8 121 13 128 8 9 1 12 -32 12 -36 0 -41 -2
-30 -15 8 -10 11 -51 8 -135 -3 -119 -4 -122 -31 -146 -40 -34 -90 -32 -128 5
-24 24 -29 38 -30 78 -2 114 3 189 13 200 8 10 0 13 -38 13 -37 0 -45 -3 -36
-12z"/>
<path d="M1055 1136 c15 -23 17 -45 13 -154 -3 -70 -9 -134 -12 -143 -6 -13 1
-16 39 -16 45 0 59 10 29 21 -11 4 -14 18 -12 58 3 51 4 53 33 56 26 2 36 -4
69 -48 61 -79 80 -91 148 -88 48 2 57 5 53 18 -3 9 1 34 8 56 13 37 16 39 66
44 59 6 62 5 89 -65 18 -46 22 -50 56 -53 41 -4 45 2 16 26 -10 10 -41 71 -68
138 -66 162 -76 179 -89 162 -6 -7 -34 -74 -63 -148 -57 -144 -65 -160 -85
-160 -15 0 -92 78 -114 114 -12 21 -11 26 9 53 30 41 31 97 2 126 -19 19 -36
23 -113 26 l-91 3 17 -26z m140 -21 c58 -57 4 -162 -64 -125 -18 9 -21 20 -21
74 0 34 3 66 7 69 14 15 55 6 78 -18z m322 -83 c19 -55 17 -62 -20 -62 -44 0
-48 5 -33 43 7 18 16 41 20 51 8 24 16 16 33 -32z"/>
<path d="M1731 1003 c-1 -87 -6 -159 -12 -161 -23 -9 -5 -19 36 -20 48 0 54 4
31 22 -10 8 -15 45 -19 125 l-6 115 133 -133 c72 -72 135 -129 139 -125 4 4 7
75 7 159 0 104 4 155 12 163 9 9 3 12 -30 12 -41 0 -42 -1 -29 -22 17 -27 24
-228 9 -228 -5 0 -62 56 -127 125 -64 69 -123 125 -129 125 -9 0 -13 -42 -15
-157z"/>
<path d="M909 661 c-52 -11 -94 -44 -118 -96 -26 -55 -26 -91 -2 -147 32 -74
89 -107 188 -108 68 0 101 13 109 45 9 37 -2 42 -27 12 -17 -23 -28 -27 -73
-27 -128 0 -211 140 -143 241 28 42 60 59 114 59 56 0 91 -15 105 -44 6 -14
15 -23 19 -20 14 8 11 60 -3 71 -18 14 -125 23 -169 14z"/>
<path d="M1271 660 c-80 -19 -126 -84 -126 -175 0 -70 20 -109 70 -144 89 -61
220 -27 271 70 23 45 18 140 -8 179 -41 60 -129 90 -207 70z m109 -33 c13 -7
35 -28 47 -46 32 -47 33 -149 2 -193 -52 -72 -156 -67 -214 10 -28 38 -28 156
0 194 11 15 29 31 40 37 28 14 96 13 125 -2z"/>
<path d="M1616 648 c-3 -7 -11 -77 -19 -156 -8 -79 -21 -149 -27 -157 -11 -13
-6 -15 29 -15 37 0 40 2 30 18 -13 21 -3 188 12 197 4 3 16 -11 24 -32 30 -71
90 -183 98 -183 5 0 32 49 60 110 29 60 55 110 59 110 9 0 15 -40 23 -141 l6
-77 37 -6 c20 -3 41 -1 46 4 7 7 4 10 -7 10 -25 0 -34 32 -46 166 -13 135 -18
164 -29 164 -9 0 -122 -233 -122 -250 0 -6 -6 -10 -14 -10 -9 0 -40 53 -77
130 -60 124 -75 145 -83 118z"/>
<path d="M660 365 c-18 -21 -5 -47 22 -43 26 3 37 36 16 49 -18 12 -24 11 -38
-6z"/>
</g>
</svg>
